<?xml version="1.0" encoding="UTF-8"?>
<svg id="a" xmlns="http://www.w3.org/2000/svg" viewBox="0 0 365.19 237.43">
<defs>
<style>.c{stroke-width:2px;}.c,.d{stroke-miterlimit:10;}.d{fill:none;stroke-linecap:round;stroke-width:10px;}</style>
</defs>
<g>
<path class="b" d="M0,0H58.5c34.55,0,58.13,15.42,58.13,46.25v.37c0,31.39-23.96,48.1-59.06,48.1h-14.12v35.29H0V0ZM55.16,63.71c11.14,0,18.57-5.01,18.57-14.3v-.37c0-9.47-6.87-14.3-18.39-14.3h-11.89v28.97h11.7Z"/><path class="b" d="M111.64,65.36v-.36C111.64,28.85,141.72,0,180.63,0s68.63,28.5,68.63,64.65v.36c0,36.15-30.08,65.01-68.99,65.01s-68.63-28.5-68.63-64.65Zm95.11,0v-.36c0-14.78-10.27-28.14-26.48-28.14s-26.12,13.18-26.12,27.78v.36c0,14.78,10.27,28.14,26.48,28.14s26.12-13.18,26.12-27.78Z"/><path class="b" d="M247.25,0h58.51c34.54,0,58.13,15.42,58.13,46.25v.37c0,31.39-23.96,48.1-59.06,48.1h-14.12v35.29h-43.46V0Zm55.16,63.71c11.14,0,18.57-5.01,18.57-14.3v-.37c0-9.47-6.87-14.3-18.39-14.3h-11.89v28.97h11.7Z"/></g><path class="d" d="M26.28,156.81c168.27-138.48,23.01,21.27-13.98,75.61-.21,.31,20.32-19.4,20.6-19.68,29.24-28.61,57.3-56.04,86.53-84.65,.27-.26,.78,0,.62,.3-49.8,91.71-46.86,62.9,35.22,12.74,.31-.19,.19-.27,0,0-71.92,105.6,10.43,16.17,10.43,16.17"/><g><path class="c" d="M160.12,162.68c0-3.61,.67-6.97,2-10.08,1.33-3.11,3.18-5.83,5.54-8.15,2.36-2.32,5.19-4.13,8.47-5.44,3.29-1.31,6.9-1.96,10.85-1.96s7.51,.66,10.82,1.96c3.31,1.31,6.15,3.12,8.53,5.44,2.38,2.32,4.24,5.04,5.57,8.15,1.33,3.11,2,6.47,2,10.08s-.67,6.97-2,10.08c-1.33,3.11-3.19,5.83-5.57,8.15-2.38,2.32-5.23,4.13-8.53,5.44-3.31,1.31-6.91,1.96-10.82,1.96s-7.57-.66-10.85-1.96c-3.28-1.31-6.11-3.12-8.47-5.44-2.36-2.32-4.21-5.03-5.54-8.15-1.33-3.11-2-6.47-2-10.08Zm13.2,0c0,1.93,.36,3.71,1.1,5.35,.73,1.63,1.72,3.05,2.96,4.25,1.25,1.2,2.69,2.14,4.35,2.8,1.65,.67,3.4,1,5.25,1s3.6-.33,5.25-1c1.65-.67,3.11-1.6,4.38-2.8,1.27-1.2,2.26-2.62,3-4.25,.73-1.63,1.09-3.41,1.09-5.35s-.37-3.71-1.09-5.35c-.73-1.63-1.73-3.05-3-4.25-1.27-1.2-2.73-2.14-4.38-2.8-1.65-.67-3.4-1-5.25-1s-3.6,.33-5.25,1c-1.65,.67-3.1,1.6-4.35,2.8-1.25,1.2-2.23,2.62-2.96,4.25-.73,1.63-1.1,3.41-1.1,5.35Z"/><path class="c" d="M217.94,138.4h18.68c3.31,0,6.41,.67,9.31,2,2.9,1.33,5.43,3.1,7.6,5.31,2.17,2.21,3.87,4.79,5.12,7.73,1.25,2.94,1.87,6.02,1.87,9.24s-.61,6.24-1.84,9.18c-1.22,2.94-2.92,5.53-5.09,7.76-2.17,2.23-4.7,4.02-7.6,5.35-2.9,1.33-6.02,2-9.37,2h-18.68v-48.56Zm12.62,37.87h2.9c2.19,0,4.14-.34,5.86-1.03,1.72-.69,3.17-1.63,4.35-2.83,1.18-1.2,2.08-2.63,2.71-4.28,.62-1.65,.93-3.47,.93-5.44s-.32-3.74-.97-5.41c-.64-1.67-1.56-3.11-2.74-4.32-1.18-1.2-2.63-2.15-4.35-2.83-1.72-.69-3.65-1.03-5.8-1.03h-2.9v27.18Z"/><path class="c" d="M292.03,149.09h-15.01v8.12h14.17v10.69h-14.17v8.37h15.01v10.69h-27.63v-48.56h27.63v10.69Z"/><path class="c" d="M309.36,138.4v37.87h15.14v10.69h-27.76v-48.56h12.62Z"/><path class="c" d="M357.17,150.83c-1.37-1.12-2.75-1.94-4.12-2.48-1.37-.54-2.71-.81-3.99-.81-1.63,0-2.96,.39-3.99,1.16s-1.55,1.78-1.55,3.03c0,.86,.26,1.57,.77,2.13,.51,.56,1.19,1.04,2.03,1.45,.84,.41,1.78,.76,2.83,1.06,1.05,.3,2.09,.62,3.12,.97,4.12,1.37,7.14,3.21,9.05,5.51,1.91,2.3,2.87,5.29,2.87,8.99,0,2.49-.42,4.75-1.26,6.76-.84,2.02-2.06,3.75-3.67,5.18-1.61,1.44-3.59,2.56-5.93,3.35-2.34,.79-4.99,1.19-7.95,1.19-6.14,0-11.83-1.82-17.07-5.47l5.41-10.18c1.89,1.67,3.76,2.92,5.6,3.74,1.85,.82,3.67,1.22,5.47,1.22,2.06,0,3.6-.47,4.61-1.42,1.01-.94,1.51-2.02,1.51-3.22,0-.73-.13-1.36-.39-1.9-.26-.54-.69-1.03-1.29-1.48-.6-.45-1.38-.87-2.35-1.26-.97-.39-2.14-.81-3.51-1.29-1.63-.52-3.23-1.08-4.8-1.71-1.57-.62-2.96-1.45-4.19-2.48-1.22-1.03-2.21-2.33-2.96-3.9-.75-1.57-1.13-3.55-1.13-5.96s.4-4.58,1.19-6.54c.79-1.95,1.91-3.63,3.35-5.02,1.44-1.4,3.2-2.48,5.28-3.25,2.08-.77,4.41-1.16,6.99-1.16,2.4,0,4.92,.33,7.54,1,2.62,.67,5.13,1.64,7.54,2.93l-5.02,9.85Z"/></g><g><path class="b" d="M50.39,214.31h6.28c5.92,0,10.02,4.07,10.02,9.37v.05c0,5.31-4.09,9.43-10.02,9.43h-6.28v-18.85Zm6.28,17.56c5.25,0,8.56-3.58,8.56-8.08v-.05c0-4.47-3.31-8.13-8.56-8.13h-4.88v16.27h4.88Z"/><path class="b" d="M82.21,214.31h7.92c2.32,0,4.17,.73,5.31,1.86,.89,.89,1.43,2.15,1.43,3.5v.05c0,3.15-2.34,4.96-5.52,5.39l6.22,8.05h-1.78l-6.01-7.81h-6.17v7.81h-1.4v-18.85Zm7.76,9.78c3.15,0,5.49-1.59,5.49-4.31v-.05c0-2.53-1.99-4.12-5.41-4.12h-6.44v8.48h6.36Z"/><path class="b" d="M119.62,214.17h1.35l8.78,18.99h-1.54l-2.4-5.28h-11.12l-2.4,5.28h-1.45l8.78-18.99Zm5.6,12.44l-4.96-10.91-4.98,10.91h9.94Z"/><path class="b" d="M142.58,223.79v-.05c0-5.09,3.69-9.75,9.32-9.75,3.07,0,5.01,.92,6.89,2.48l-.92,1.05c-1.48-1.29-3.2-2.26-6.06-2.26-4.58,0-7.78,3.88-7.78,8.43v.05c0,4.87,3.04,8.51,8.08,8.51,2.4,0,4.63-1,6.01-2.15v-5.41h-6.3v-1.29h7.65v7.27c-1.7,1.51-4.34,2.83-7.41,2.83-5.95,0-9.48-4.39-9.48-9.7Z"/><path class="b" d="M201.31,214.17h1.35l8.78,18.99h-1.54l-2.4-5.28h-11.12l-2.4,5.28h-1.45l8.78-18.99Zm5.6,12.44l-4.96-10.91-4.98,10.91h9.94Z"/><path class="b" d="M224.28,223.79v-.05c0-5.09,3.69-9.75,9.32-9.75,3.07,0,5.01,.92,6.89,2.48l-.92,1.05c-1.48-1.29-3.2-2.26-6.06-2.26-4.58,0-7.78,3.88-7.78,8.43v.05c0,4.87,3.04,8.51,8.08,8.51,2.4,0,4.63-1,6.01-2.15v-5.41h-6.3v-1.29h7.65v7.27c-1.7,1.51-4.34,2.83-7.41,2.83-5.95,0-9.48-4.39-9.48-9.7Z"/><path class="b" d="M257,214.31h13.41v1.29h-12.01v7.41h10.8v1.29h-10.8v7.57h12.15v1.29h-13.55v-18.85Z"/><path class="b" d="M285.81,214.31h1.32l13.01,16.4v-16.4h1.35v18.85h-1.05l-13.28-16.75v16.75h-1.35v-18.85Z"/><path class="b" d="M317.02,223.79v-.05c0-5.33,3.99-9.75,9.43-9.75,3.37,0,5.39,1.24,7.33,3.02l-1,1.02c-1.64-1.59-3.53-2.77-6.36-2.77-4.52,0-7.95,3.69-7.95,8.43v.05c0,4.77,3.47,8.48,7.97,8.48,2.72,0,4.58-1.05,6.49-2.94l.94,.92c-1.99,1.97-4.15,3.29-7.49,3.29-5.39,0-9.37-4.28-9.37-9.7Z"/><path class="b" d="M354.36,225.7l-8.08-11.39h1.75l7.06,10.13,7.08-10.13h1.67l-8.08,11.37v7.49h-1.4v-7.46Z"/></g></svg>